<svg width="64" height="64" viewBox="0 0 64 64" fill="none" xmlns="http://www.w3.org/2000/svg">
<rect x="1" y="1" width="62" height="62" rx="15" fill="#251E1F"/>
<rect x="1" y="1" width="62" height="62" rx="15" stroke="#544547" stroke-width="2"/>
<path d="M11.5152 42.1113L8 17.9408L31.9596 9L56 18.2818L52.4444 42.1113L31.9596 57L11.5152 42.1113Z" fill="#DBB78A" fill-opacity="0.2"/>
<path d="M8 17.9408L11.5152 42.1113M8 17.9408L31.9596 9M8 17.9408L31.9596 31.1626M11.5152 42.1113L31.9596 57M11.5152 42.1113L31.9596 31.1626M31.9596 57L52.4444 42.1113M31.9596 57V31.1626M52.4444 42.1113L56 18.2818M52.4444 42.1113L31.9596 31.1626M56 18.2818L31.9596 9M56 18.2818L31.9596 31.1626M31.9596 9V31.1626" stroke="#DBB78A" stroke-width="2"/>
</svg>
